HIERARCHY
ROOT root
{
	OFFSET	0.000000	0.000000	0.000000
	CHANNELS 6 Xposition Yposition Zposition Zrotation Yrotation Xrotation
	JOINT lhipjoint
	{
		OFFSET	0.000000	0.000000	0.000000
		CHANNELS 3 Zrotation Yrotation Xrotation
		JOINT lfemur
		{
			OFFSET	1.379593	-1.787134	0.865822
			CHANNELS 3 Zrotation Yrotation Xrotation
			JOINT ltibia
			{
				OFFSET	2.546113	-6.995392	0.000000
				CHANNELS 3 Zrotation Yrotation Xrotation
				JOINT lfoot
				{
					OFFSET	2.599512	-7.142107	0.000000
					CHANNELS 3 Zrotation Yrotation Xrotation
					JOINT ltoes
					{
						OFFSET	0.184933	-0.508098	1.961198
						CHANNELS 3 Zrotation Yrotation Xrotation
						End Site
						{
							OFFSET	0.000000	-0.000000	1.020540
						}
					}
				}
			}
		}
	}
	JOINT rhipjoint
	{
		OFFSET	0.000000	0.000000	0.000000
		CHANNELS 3 Zrotation Yrotation Xrotation
		JOINT rfemur
		{
			OFFSET	-1.335635	-1.787131	0.865821
			CHANNELS 3 Zrotation Yrotation Xrotation
			JOINT rtibia
			{
				OFFSET	-2.527048	-6.943014	0.000000
				CHANNELS 3 Zrotation Yrotation Xrotation
				JOINT rfoot
				{
					OFFSET	-2.559643	-7.032567	0.000000
					CHANNELS 3 Zrotation Yrotation Xrotation
					JOINT rtoes
					{
						OFFSET	-0.258038	-0.708956	2.121088
						CHANNELS 3 Zrotation Yrotation Xrotation
						End Site
						{
							OFFSET	-0.000000	-0.000000	1.118210
						}
					}
				}
			}
		}
	}
	JOINT lowerback
	{
		OFFSET	0.000000	0.000000	0.000000
		CHANNELS 3 Zrotation Yrotation Xrotation
		JOINT upperback
		{
			OFFSET	-0.020306	2.242478	-0.189003
			CHANNELS 3 Zrotation Yrotation Xrotation
			JOINT thorax
			{
				OFFSET	0.083423	2.246891	-0.037991
				CHANNELS 3 Zrotation Yrotation Xrotation
				JOINT lowerneck
				{
					OFFSET	0.091180	2.261659	0.051401
					CHANNELS 3 Zrotation Yrotation Xrotation
					JOINT upperneck
					{
						OFFSET	-0.116074	1.558436	0.246284
						CHANNELS 3 Zrotation Yrotation Xrotation
						JOINT head
						{
							OFFSET	0.068770	1.601743	-0.170131
							CHANNELS 3 Zrotation Yrotation Xrotation
							End Site
							{
								OFFSET	0.033585	1.612660	-0.085426
							}
						}
					}
				}
				JOINT lclavicle
				{
					OFFSET	0.091180	2.261659	0.051401
					CHANNELS 3 Zrotation Yrotation Xrotation
					JOINT lhumerus
					{
						OFFSET	3.475374	0.558664	-0.723475
						CHANNELS 3 Zrotation Yrotation Xrotation
						JOINT lradius
						{
							OFFSET	5.381540	-0.000000	0.000000
							CHANNELS 3 Zrotation Yrotation Xrotation
							JOINT lwrist
							{
								OFFSET	3.333120	-0.000000	0.000000
								CHANNELS 3 Zrotation Yrotation Xrotation
								JOINT lhand
								{
									OFFSET	1.666560	-0.000000	0.000000
									CHANNELS 3 Zrotation Yrotation Xrotation
									JOINT lfingers
									{
										OFFSET	0.710789	-0.000000	0.000000
										CHANNELS 3 Zrotation Yrotation Xrotation
										End Site
										{
											OFFSET	0.573057	-0.000000	0.000000
										}
									}
								}
								JOINT lthumb
								{
									OFFSET	1.666560	-0.000000	0.000000
									CHANNELS 3 Zrotation Yrotation Xrotation
									End Site
									{
										OFFSET	0.581806	-0.000000	0.581806
									}
								}
							}
						}
					}
				}
				JOINT rclavicle
				{
					OFFSET	0.091180	2.261659	0.051401
					CHANNELS 3 Zrotation Yrotation Xrotation
					JOINT rhumerus
					{
						OFFSET	-3.278445	0.907392	-0.357082
						CHANNELS 3 Zrotation Yrotation Xrotation
						JOINT rradius
						{
							OFFSET	-5.169540	-0.000000	0.000000
							CHANNELS 3 Zrotation Yrotation Xrotation
							JOINT rwrist
							{
								OFFSET	-3.382870	-0.000000	0.000000
								CHANNELS 3 Zrotation Yrotation Xrotation
								JOINT rhand
								{
									OFFSET	-1.691440	-0.000000	0.000000
									CHANNELS 3 Zrotation Yrotation Xrotation
									JOINT rfingers
									{
										OFFSET	-0.817967	-0.000000	0.000000
										CHANNELS 3 Zrotation Yrotation Xrotation
										End Site
										{
											OFFSET	-0.659466	-0.000000	0.000000
										}
									}
								}
								JOINT rthumb
								{
									OFFSET	-1.691440	-0.000000	0.000000
									CHANNELS 3 Zrotation Yrotation Xrotation
									End Site
									{
										OFFSET	-0.669535	-0.000000	0.669535
									}
								}
							}
						}
					}
				}
			}
		}
	}
}
MOTION
Frames:	12
Frame Time:	0.008333
	10.816700	17.930700	6.399000	-175.220001	-22.636602	-174.714996	0.000000	0.000000	0.000000	-8.875045	-3.655217	-18.292154	2.622257	10.056880	29.161118	0.590782	-2.111401	-13.949493	0.354684	-3.826231	-10.588298	0.000000	0.000000	0.000000	28.290878	2.504509	-21.178576	-1.856600	-8.560773	24.430744	-0.305755	-2.411715	-11.614416	-0.849624	-5.878825	16.433241	0.583370	2.205070	4.812080	1.130300	2.893620	1.954550	0.677853	1.409420	-0.716571	-19.121801	-13.759999	-6.376040	10.101800	-19.144600	17.932499	4.075631	-9.656801	9.528060	-19.121799	-0.000000	0.000000	-82.415253	1.232462	23.237354	30.833601	-41.597275	-11.959224	-0.000000	-0.000003	3.884120	2.534030	32.439407	1.359902	-7.125019	0.000000	0.000000	-33.444889	59.174213	-12.439918	-19.121799	-0.000000	0.000000	86.444481	13.220263	33.694206	-44.104435	50.322124	-21.547256	0.000000	-0.000002	-32.328487	-30.773972	31.729923	-17.389774	7.125019	0.000000	0.000000	0.527417	5.760265	0.577714
	10.839900	17.925501	6.443380	-175.235992	-22.684999	-174.475006	0.000000	0.000000	0.000000	-8.820740	-3.920482	-18.806652	2.654048	10.112770	29.342688	0.585217	-2.076799	-13.888158	0.406381	-4.092467	-11.336956	0.000000	0.000000	0.000000	28.219170	2.991501	-21.641266	-1.886631	-8.625833	24.631716	-0.288279	-2.794215	-11.563840	-0.997485	-6.355920	17.820681	0.614309	2.235070	5.017470	1.166890	2.935720	1.943360	0.687035	1.429140	-0.843094	-18.681700	-13.803201	-6.408871	9.631620	-19.030502	17.359600	3.888220	-9.595150	9.221370	-18.681698	0.000000	0.000000	-82.448296	1.136241	22.918291	31.455727	-42.108932	-12.374322	0.000000	0.000000	4.291068	2.098066	33.324959	1.153012	-7.125019	0.000000	0.000000	-34.735886	59.802719	-13.526856	-18.681698	0.000000	0.000000	86.634697	13.066143	33.444889	-45.779610	51.144741	-22.844263	-0.000000	0.000002	-32.985298	-31.269150	30.912279	-17.326406	7.125019	0.000000	0.000000	0.082696	5.033030	0.089638
	10.857800	17.909401	6.489580	-175.087006	-22.794401	-174.645996	0.000000	0.000000	0.000000	-8.620534	-4.209008	-18.962324	2.700726	10.194057	29.607452	0.584251	-2.154852	-13.861259	0.385294	-3.986108	-11.037586	0.000000	0.000000	0.000000	28.294542	3.268879	-21.745424	-1.903058	-8.661167	24.741028	-0.279138	-3.127078	-11.633174	-1.231817	-7.038592	19.829750	0.862476	2.252640	5.585550	1.230690	2.969930	1.982010	0.589512	1.441490	-1.110360	-18.705799	-13.722900	-6.134311	9.775380	-18.895401	16.759502	3.992620	-9.522160	8.964130	-18.705799	0.000000	0.000000	-82.448151	1.178432	22.679878	32.053421	-42.589725	-12.776965	0.000000	0.000000	4.635058	1.601168	33.562073	0.885351	-7.125019	0.000000	0.000000	-35.459747	59.879845	-13.919768	-18.705799	0.000000	0.000000	86.851830	12.914746	33.049435	-46.959068	51.692917	-23.766294	-0.000000	0.000002	-32.855701	-31.612694	30.720747	-17.455008	7.125019	0.000000	0.000000	-0.149518	4.927102	-0.161809
	10.870000	17.892200	6.530670	-175.065994	-22.913200	-174.751007	0.000000	0.000000	0.000000	-8.591110	-4.381115	-19.188053	2.755846	10.288918	29.917486	0.581628	-2.272511	-13.807239	0.363929	-3.875234	-10.725924	0.000000	0.000000	0.000000	28.285952	3.171911	-21.900164	-1.901988	-8.658868	24.733915	-0.266082	-3.216958	-11.473314	-1.352754	-7.362740	20.794569	1.102450	2.282010	6.114990	1.187680	3.024710	1.985300	0.386025	1.465240	-1.386630	-18.832901	-13.629500	-5.806020	10.190399	-18.833302	16.322298	4.187799	-9.477440	8.804180	-18.832899	-0.000000	-0.000000	-82.338531	1.363037	22.762295	32.541767	-42.974850	-13.108663	0.000000	0.000000	3.930957	3.030684	33.154270	1.658554	-7.125019	0.000000	0.000000	-33.652737	59.879704	-13.106533	-18.832899	-0.000000	-0.000000	87.144821	12.899502	32.584206	-47.947250	52.133282	-24.544085	0.000000	0.000000	-32.798092	-31.938282	30.310038	-17.463734	7.125019	0.000000	0.000000	-0.417186	4.581286	-0.449190
	10.884400	17.880400	6.566240	-174.953003	-22.980301	-174.608994	0.000000	0.000000	0.000000	-8.440502	-4.443455	-19.723448	2.803373	10.369740	30.182545	0.586058	-2.469885	-13.827107	0.331200	-3.698670	-10.230424	0.000000	0.000000	0.000000	28.351940	3.315355	-22.261770	-1.903494	-8.662100	24.743916	-0.252976	-3.296240	-11.302200	-1.523428	-7.793521	22.088665	1.403170	2.275870	6.279339	1.172490	3.035010	1.978700	0.195061	1.468720	-1.467980	-19.021799	-13.584999	-5.830890	10.528601	-18.787201	16.188698	4.332940	-9.437640	8.810899	-19.021799	0.000000	0.000000	-82.269302	1.526932	22.731812	33.083847	-43.394386	-13.479642	0.000000	0.000000	2.935735	4.288827	33.042721	2.341616	-7.125019	0.000000	0.000000	-32.300945	60.080940	-12.666945	-19.021799	0.000000	0.000000	87.320107	13.039136	32.415150	-48.813103	52.505447	-25.229357	0.000000	-0.000002	-32.953190	-32.408161	29.967674	-17.593786	7.125019	0.000000	0.000000	-0.753102	4.349466	-0.808116
	10.901200	17.889299	6.604250	-174.891006	-23.107498	-174.222015	0.000000	0.000000	0.000000	-8.315684	-4.565451	-20.514694	2.837245	10.426805	30.370205	0.579134	-2.645669	-13.714269	0.289633	-3.460901	-9.564691	0.000000	0.000000	0.000000	28.366432	3.566792	-22.902071	-1.914644	-8.685979	24.817862	-0.242300	-3.456392	-11.231230	-1.606715	-7.993761	22.695131	1.657630	2.241560	6.081241	1.159370	2.995850	2.050319	0.052803	1.449970	-1.270340	-19.130405	-13.647000	-6.050391	10.599101	-18.794502	16.060699	4.355609	-9.424649	8.826401	-19.130400	-0.000000	0.000000	-82.240150	1.548697	22.533136	33.723057	-43.878483	-13.920748	0.000000	0.000003	2.331328	4.576017	33.187450	2.508559	-7.125019	0.000000	0.000000	-32.158012	60.269440	-12.750043	-19.130400	-0.000000	0.000000	87.401756	13.372069	32.328903	-49.770634	52.902565	-25.991102	0.000000	-0.000002	-33.013390	-32.933720	29.716648	-17.802029	7.125019	0.000000	0.000000	-1.102556	4.232738	-1.181138
	10.917200	17.890900	6.646910	-175.033997	-23.274998	-173.695007	0.000000	0.000000	0.000000	-8.417668	-4.741115	-21.300728	2.850976	10.449813	30.445992	0.565664	-2.682873	-13.542760	0.271692	-3.352880	-9.262787	0.000000	0.000000	0.000000	28.203527	3.655537	-23.735970	-1.938299	-8.736362	24.974045	-0.232530	-3.535191	-11.115730	-1.496172	-7.726636	21.886814	1.702360	2.233230	5.843080	1.131060	2.979500	2.114690	0.011598	1.443770	-1.068070	-19.214600	-13.765901	-6.201611	10.550801	-18.840899	15.749700	4.335850	-9.435401	8.759032	-19.214598	0.000000	-0.000000	-82.269791	1.533820	22.417833	34.238533	-44.260677	-14.279276	0.000000	0.000000	1.804737	4.823391	33.347282	2.655855	-7.125019	0.000000	0.000000	-32.070206	60.461903	-12.859545	-19.214598	0.000000	-0.000000	87.343132	13.828024	32.103577	-50.488564	53.190639	-26.564823	-0.000000	0.000002	-32.895390	-33.403343	29.520802	-18.001221	7.125019	0.000000	0.000000	-1.409651	4.159904	-1.508639
	10.930200	17.874201	6.689920	-174.917007	-23.432396	-173.447021	0.000000	0.000000	0.000000	-8.285350	-4.909093	-21.716398	2.837157	10.426656	30.369717	0.565826	-2.594040	-13.558224	0.267736	-3.328561	-9.194864	0.000000	0.000000	0.000000	28.273054	3.749170	-24.428532	-1.988537	-8.842160	25.302816	-0.232470	-3.548019	-11.124349	-1.454998	-7.624269	21.578543	2.084580	2.247760	6.070250	1.095290	3.033080	1.963670	-0.254945	1.469710	-1.326770	-19.220200	-13.787100	-6.118510	10.480000	-18.840000	15.572902	4.321651	-9.439353	8.677790	-19.220200	0.000000	0.000000	-82.181984	1.872784	22.698488	34.794014	-44.664486	-14.668371	0.000000	0.000000	0.831938	5.588840	34.098541	3.140031	-7.125019	0.000000	0.000000	-32.067730	61.274719	-13.483195	-19.220200	0.000000	0.000000	87.299561	13.865701	31.862431	-50.938633	53.367111	-26.925579	0.000000	-0.000002	-32.889187	-33.758839	29.261921	-18.093092	7.125019	0.000000	0.000000	-1.665722	3.984950	-1.778182
	10.947600	17.870600	6.732170	-174.867996	-23.524202	-173.416000	0.000000	0.000000	0.000000	-8.241513	-4.962037	-21.847691	2.812891	10.385817	30.235376	0.581079	-2.513433	-13.759036	0.284933	-3.432937	-9.486505	0.000000	0.000000	0.000000	28.264177	3.934116	-24.862234	-2.054196	-8.978065	25.726732	-0.233555	-3.676790	-11.242640	-1.454415	-7.622807	21.574146	2.643040	2.217690	6.932430	0.803931	3.070680	1.590110	-0.914720	1.479940	-2.144330	-19.040100	-13.637300	-5.911251	10.514500	-18.739902	15.748702	4.339480	-9.398182	8.669970	-19.040100	-0.000000	0.000000	-81.618210	2.674615	23.064556	35.442970	-45.125866	-15.126417	0.000000	0.000000	-0.330759	6.507430	34.651680	3.710829	-7.125019	0.000000	0.000000	-31.723537	61.964725	-13.841835	-19.040100	-0.000000	0.000000	87.627472	13.521292	31.848438	-51.174797	53.458466	-27.115202	0.000000	0.000000	-32.961697	-34.099541	29.050110	-18.198433	7.125019	0.000000	0.000000	-1.904023	3.856637	-2.028864
	10.969000	17.874399	6.780930	-175.701996	-23.564400	-172.876007	0.000000	0.000000	0.000000	-9.098888	-5.178977	-22.199226	2.800488	10.364861	30.166513	0.598684	-2.214836	-14.025905	0.296586	-3.501838	-9.679190	0.000000	0.000000	0.000000	27.327171	4.180982	-25.497375	-2.108697	-9.088916	26.073862	-0.205823	-3.966934	-10.968883	-1.496133	-7.726542	21.886532	1.527200	2.292970	6.471950	1.049390	3.060880	2.073420	-0.007848	1.480160	-1.463930	-19.676600	-13.700199	-5.907280	10.771801	-18.691002	15.123998	4.525000	-9.371800	8.543359	-19.676601	0.000000	-0.000000	-82.371162	1.995894	22.307816	35.359493	-45.067127	-15.067290	0.000000	0.000003	0.375289	5.042240	33.388927	2.779843	-7.125019	0.000000	0.000000	-31.893084	60.548794	-12.846402	-19.676601	0.000000	-0.000000	86.521576	14.838016	31.945452	-50.858082	53.335762	-26.860947	0.000000	0.000000	-33.231689	-34.580517	29.004354	-18.482225	7.125019	0.000000	0.000000	-2.187226	3.953457	-2.334477
	10.984000	17.870300	6.828330	-176.327011	-23.679598	-172.345001	0.000000	0.000000	0.000000	-9.742720	-5.485368	-22.657408	2.808322	10.378105	30.210030	0.608875	-1.828582	-14.227139	0.323908	-3.658104	-10.116721	0.000000	0.000000	0.000000	26.598469	4.243361	-26.192509	-2.139622	-9.151043	26.268955	-0.174882	-4.134672	-10.520569	-1.605450	-7.990760	22.686020	1.199990	2.178920	6.575480	0.857864	2.889500	2.091180	-0.012834	1.396020	-1.511570	-19.704800	-13.626501	-5.813451	10.842600	-18.559099	14.774000	4.586569	-9.303150	8.398890	-19.704800	-0.000000	-0.000000	-82.371399	2.138500	22.376604	35.903992	-45.446953	-15.454036	0.000000	0.000000	-0.872572	7.078188	34.583881	4.031560	-7.125019	0.000000	0.000000	-31.069847	62.051395	-13.589195	-19.704800	-0.000000	-0.000000	86.281219	15.292425	32.358032	-50.981918	53.383930	-26.960318	0.000000	0.000000	-33.351692	-35.002056	28.884344	-18.688435	7.125019	0.000000	0.000000	-2.452499	3.952169	-2.618034
	10.999400	17.866301	6.865740	-175.998001	-23.815500	-172.227005	0.000000	0.000000	0.000000	-9.406394	-5.329935	-23.244640	2.829968	10.414585	30.329981	0.637685	-1.911706	-14.552670	0.429495	-4.205817	-11.656429	0.000000	0.000000	0.000000	26.914581	4.279451	-26.717571	-2.157860	-9.187431	26.383406	-0.181759	-4.067676	-10.596785	-1.588219	-7.949815	22.561756	1.519100	2.087160	6.499980	1.080360	2.778310	2.198590	0.051333	1.337310	-1.355400	-19.607502	-13.575799	-5.909670	10.470402	-18.346502	14.428799	4.486110	-9.210020	8.219541	-19.607502	0.000000	0.000000	-82.692032	2.024065	21.667044	35.836288	-45.400143	-15.405806	0.000000	0.000000	-0.612391	6.446860	33.814232	3.598173	-7.125019	0.000000	0.000000	-30.909121	61.245739	-12.919511	-19.607502	0.000000	0.000000	85.776711	15.469117	32.651466	-51.487095	53.577934	-27.366304	-0.000000	0.000002	-33.702290	-35.382568	28.719624	-18.843273	7.125019	0.000000	0.000000	-2.704422	3.889789	-2.884779
